<svg width="1439" height="1554" viewBox="0 0 1439 1554" fill="none" xmlns="http://www.w3.org/2000/svg">
<g clip-path="url(#clip0_368_500)">
<rect width="1440" height="1554" transform="translate(-1)" fill="#09171E"/>
<g opacity="0.2" filter="url(#filter0_f_368_500)">
<path fill-rule="evenodd" clip-rule="evenodd" d="M1901.44 2000.98L2267.54 1635.04L1053.94 1308.55L1188.76 1809.25L1188.76 1809.24L1545.1 1905.11L1901.44 2000.97L1901.44 2000.98Z" fill="url(#paint0_linear_368_500)"/>
</g>
<g opacity="0.2" filter="url(#filter1_f_368_500)">
<path fill-rule="evenodd" clip-rule="evenodd" d="M-125.801 -371.76L-601 -166.506L406.832 584.276L466.046 69.1367L466.041 69.1457L170.116 -151.303L-125.809 -371.752L-125.801 -371.76Z" fill="url(#paint1_linear_368_500)"/>
</g>
<mask id="path-3-inside-1_368_500" fill="white">
<path fill-rule="evenodd" clip-rule="evenodd" d="M1438 1568H1439V1442V1441V1311V1310V1180V1179V1049V1048V918V917V787V786V656V655V525V524V480H1438V524H1308V480H1307V524H1177V480H1176V524H1046V480H1045V524H915V480H914V524H784V480H783V524L653 524V480H652V524H522V480H521V524H391V480H390V524H260V480H259V524H129V480H128V524H-1V525H128V655H-1V656H128V786H-1V787H128V917H-1V918H128V1048H-1V1049H128V1179H-1V1180H128V1310H-1V1311H128V1441L-1 1441V1442L128 1442V1568H129V1442H259V1568H260V1442L390 1442V1568H391V1442L521 1442V1568H522V1442L652 1442V1568H653V1442H783V1568H784V1442L914 1442V1568H915V1442L1045 1442V1568H1046V1442L1176 1442V1568H1177V1442H1307V1568H1308V1442L1438 1442V1568ZM129 525V655H259V525H129ZM260 525V655H390V525H260ZM391 525V655H521V525H391ZM522 525V655H652V525H522ZM653 525V655L783 655V525L653 525ZM784 525V655H914V525H784ZM915 525V655H1045V525H915ZM1046 525V655H1176V525H1046ZM1177 525V655H1307V525H1177ZM1308 525V655H1438V525H1308ZM1308 656H1438V786H1308V656ZM1177 656H1307V786H1177V656ZM1046 656H1176V786H1046V656ZM915 656H1045V786H915V656ZM784 656H914V786H784V656ZM653 656L783 656V786L653 786V656ZM522 656H652V786H522V656ZM391 656H521V786H391V656ZM260 656H390V786H260V656ZM129 656H259V786H129V656ZM129 787V917H259V787H129ZM260 787V917H390V787H260ZM391 787V917H521V787H391ZM522 787V917H652V787H522ZM653 787V917L783 917V787L653 787ZM784 787V917H914V787H784ZM915 787V917H1045V787H915ZM1046 787V917H1176V787H1046ZM1177 787V917H1307V787H1177ZM1308 787V917H1438V787H1308ZM1308 918H1438V1048H1308V918ZM1177 918H1307V1048H1177V918ZM1046 918H1176V1048H1046V918ZM915 918H1045V1048H915V918ZM784 918H914V1048H784V918ZM653 918L783 918V1048L653 1048V918ZM522 918H652V1048H522V918ZM391 918H521V1048H391V918ZM260 918H390V1048H260V918ZM129 918H259V1048H129V918ZM129 1049V1179H259V1049H129ZM260 1049V1179L390 1179V1049H260ZM391 1049V1179H521V1049H391ZM522 1049V1179H652V1049H522ZM653 1049V1179H783V1049L653 1049ZM784 1049V1179H914V1049H784ZM915 1049V1179H1045V1049H915ZM1046 1049V1179L1176 1179V1049H1046ZM1177 1049V1179H1307V1049H1177ZM1308 1049V1179H1438V1049H1308ZM1308 1180H1438V1310H1308V1180ZM1177 1180H1307V1310H1177V1180ZM1046 1180L1176 1180V1310L1046 1310V1180ZM915 1180H1045V1310H915V1180ZM784 1180H914V1310H784V1180ZM653 1180H783V1310H653V1180ZM522 1180H652V1310H522V1180ZM391 1180H521V1310H391V1180ZM260 1180L390 1180V1310L260 1310V1180ZM129 1180H259V1310H129V1180ZM129 1311V1441H259V1311H129ZM260 1311V1441L390 1441V1311L260 1311ZM391 1311V1441L521 1441V1311H391ZM522 1311V1441L652 1441V1311H522ZM653 1311V1441H783V1311H653ZM784 1311V1441L914 1441V1311H784ZM915 1311V1441L1045 1441V1311H915ZM1046 1311V1441L1176 1441V1311L1046 1311ZM1177 1311V1441H1307V1311H1177ZM1308 1311V1441L1438 1441V1311H1308ZM-3 1568H-2V480H-3V1568Z"/>
</mask>
<path d="M1439 1568V1570H1441V1568H1439ZM1438 1568H1436V1570H1438V1568ZM1439 480H1441V478H1439V480ZM1438 480V478H1436V480H1438ZM1438 524V526H1440V524H1438ZM1308 524H1306V526H1308V524ZM1308 480H1310V478H1308V480ZM1307 480V478H1305V480H1307ZM1307 524V526H1309V524H1307ZM1177 524H1175V526H1177V524ZM1177 480H1179V478H1177V480ZM1176 480V478H1174V480H1176ZM1176 524V526H1178V524H1176ZM1046 524H1044V526H1046V524ZM1046 480H1048V478H1046V480ZM1045 480V478H1043V480H1045ZM1045 524V526H1047V524H1045ZM915 524H913V526H915V524ZM915 480H917V478H915V480ZM914 480V478H912V480H914ZM914 524V526H916V524H914ZM784 524H782V526H784V524ZM784 480H786V478H784V480ZM783 480V478H781V480H783ZM783 524V526H785V524H783ZM653 524H651V526H653V524ZM653 480H655V478H653V480ZM652 480V478H650V480H652ZM652 524V526H654V524H652ZM522 524H520V526H522V524ZM522 480H524V478H522V480ZM521 480V478H519V480H521ZM521 524V526H523V524H521ZM391 524H389V526H391V524ZM391 480H393V478H391V480ZM390 480V478H388V480H390ZM390 524V526H392V524H390ZM260 524H258V526H260V524ZM260 480H262V478H260V480ZM259 480V478H257V480H259ZM259 524V526H261V524H259ZM129 524H127V526H129V524ZM129 480H131V478H129V480ZM128 480V478H126V480H128ZM128 524V526H130V524H128ZM-1 524V522H-3V524H-1ZM-1 525H-3V527H-1V525ZM128 525H130V523H128V525ZM128 655V657H130V655H128ZM-1 655V653H-3V655H-1ZM-1 656H-3V658H-1V656ZM128 656H130V654H128V656ZM128 786V788H130V786H128ZM-1 786V784H-3V786H-1ZM-1 787H-3V789H-1V787ZM128 787H130V785H128V787ZM128 917V919H130V917H128ZM-1 917V915H-3V917H-1ZM-1 918H-3V920H-1V918ZM128 918H130V916H128V918ZM128 1048V1050H130V1048H128ZM-1 1048V1046H-3V1048H-1ZM-1 1049H-3V1051H-1V1049ZM128 1049H130V1047H128V1049ZM128 1179V1181H130V1179H128ZM-1 1179V1177H-3V1179H-1ZM-1 1180H-3V1182H-1V1180ZM128 1180H130V1178H128V1180ZM128 1310V1312H130V1310H128ZM-1 1310V1308H-3V1310H-1ZM-1 1311H-3V1313H-1V1311ZM128 1311H130V1309H128V1311ZM128 1441V1443H130V1441H128ZM-1 1441V1439H-3V1441H-1ZM-1 1442H-3V1444H-1V1442ZM128 1442H130V1440H128V1442ZM128 1568H126V1570H128V1568ZM129 1568V1570H131V1568H129ZM129 1442V1440H127V1442H129ZM259 1442H261V1440H259V1442ZM259 1568H257V1570H259V1568ZM260 1568V1570H262V1568H260ZM260 1442V1440H258V1442H260ZM390 1442H392V1440H390V1442ZM390 1568H388V1570H390V1568ZM391 1568V1570H393V1568H391ZM391 1442V1440H389V1442H391ZM521 1442H523V1440H521V1442ZM521 1568H519V1570H521V1568ZM522 1568V1570H524V1568H522ZM522 1442V1440H520V1442H522ZM652 1442H654V1440H652V1442ZM652 1568H650V1570H652V1568ZM653 1568V1570H655V1568H653ZM653 1442V1440H651V1442H653ZM783 1442H785V1440H783V1442ZM783 1568H781V1570H783V1568ZM784 1568V1570H786V1568H784ZM784 1442V1440H782V1442H784ZM914 1442H916V1440H914V1442ZM914 1568H912V1570H914V1568ZM915 1568V1570H917V1568H915ZM915 1442V1440H913V1442H915ZM1045 1442H1047V1440H1045V1442ZM1045 1568H1043V1570H1045V1568ZM1046 1568V1570H1048V1568H1046ZM1046 1442V1440H1044V1442H1046ZM1176 1442H1178V1440H1176V1442ZM1176 1568H1174V1570H1176V1568ZM1177 1568V1570H1179V1568H1177ZM1177 1442V1440H1175V1442H1177ZM1307 1442H1309V1440H1307V1442ZM1307 1568H1305V1570H1307V1568ZM1308 1568V1570H1310V1568H1308ZM1308 1442V1440H1306V1442H1308ZM1438 1442H1440V1440H1438L1438 1442ZM129 525V523H127V525H129ZM129 655H127V657H129V655ZM259 655V657H261V655H259ZM259 525H261V523H259V525ZM260 525V523H258V525H260ZM260 655H258V657H260V655ZM390 655V657H392V655H390ZM390 525H392V523H390V525ZM391 525V523H389V525H391ZM391 655H389V657H391V655ZM521 655V657H523V655H521ZM521 525H523V523H521V525ZM522 525V523H520V525H522ZM522 655H520V657H522V655ZM652 655V657H654V655H652ZM652 525H654V523H652V525ZM653 525V523H651V525H653ZM653 655H651V657H653V655ZM783 655V657H785V655H783ZM783 525H785V523H783V525ZM784 525V523H782V525H784ZM784 655H782V657H784V655ZM914 655V657H916V655H914ZM914 525H916V523H914V525ZM915 525V523H913V525H915ZM915 655H913V657H915V655ZM1045 655V657H1047V655H1045ZM1045 525H1047V523H1045V525ZM1046 525V523H1044V525H1046ZM1046 655H1044V657H1046V655ZM1176 655V657H1178V655H1176ZM1176 525H1178V523H1176V525ZM1177 525V523H1175V525H1177ZM1177 655H1175V657H1177V655ZM1307 655V657H1309V655H1307ZM1307 525H1309V523H1307V525ZM1308 525V523H1306V525H1308ZM1308 655H1306V657H1308V655ZM1438 655V657H1440V655H1438ZM1438 525H1440V523H1438V525ZM1438 656H1440V654H1438V656ZM1308 656V654H1306V656H1308ZM1438 786V788H1440V786H1438ZM1308 786H1306V788H1308V786ZM1307 656H1309V654H1307V656ZM1177 656V654H1175V656H1177ZM1307 786V788H1309V786H1307ZM1177 786H1175V788H1177V786ZM1176 656H1178V654H1176V656ZM1046 656V654H1044V656H1046ZM1176 786V788H1178V786H1176ZM1046 786H1044V788H1046V786ZM1045 656H1047V654H1045V656ZM915 656V654H913V656H915ZM1045 786V788H1047V786H1045ZM915 786H913V788H915V786ZM914 656H916V654H914V656ZM784 656V654H782V656H784ZM914 786V788H916V786H914ZM784 786H782V788H784V786ZM783 656H785V654H783V656ZM653 656V654H651V656H653ZM783 786V788H785V786H783ZM653 786H651V788H653V786ZM652 656H654V654H652V656ZM522 656V654H520V656H522ZM652 786V788H654V786H652ZM522 786H520V788H522V786ZM521 656H523V654H521V656ZM391 656V654H389V656H391ZM521 786V788H523V786H521ZM391 786H389V788H391V786ZM390 656H392V654H390V656ZM260 656V654H258V656H260ZM390 786V788H392V786H390ZM260 786H258V788H260V786ZM259 656H261V654H259V656ZM129 656V654H127V656H129ZM259 786V788H261V786H259ZM129 786H127V788H129V786ZM129 917H127V919H129V917ZM129 787V785H127V787H129ZM259 917V919H261V917H259ZM259 787H261V785H259V787ZM260 917H258V919H260V917ZM260 787V785H258V787H260ZM390 917V919H392V917H390ZM390 787H392V785H390V787ZM391 917H389V919H391V917ZM391 787V785H389V787H391ZM521 917V919H523V917H521ZM521 787H523V785H521V787ZM522 917H520V919H522V917ZM522 787V785H520V787H522ZM652 917V919H654V917H652ZM652 787H654V785H652V787ZM653 917H651V919H653V917ZM653 787V785H651V787H653ZM783 917V919H785V917H783ZM783 787H785V785H783V787ZM784 917H782V919H784V917ZM784 787V785H782V787H784ZM914 917V919H916V917H914ZM914 787H916V785H914V787ZM915 917H913V919H915V917ZM915 787V785H913V787H915ZM1045 917V919H1047V917H1045ZM1045 787H1047V785H1045V787ZM1046 917H1044V919H1046V917ZM1046 787V785H1044V787H1046ZM1176 917V919H1178V917H1176ZM1176 787H1178V785H1176V787ZM1177 917H1175V919H1177V917ZM1177 787V785H1175V787H1177ZM1307 917V919H1309V917H1307ZM1307 787H1309V785H1307V787ZM1308 917H1306V919H1308V917ZM1308 787V785H1306V787H1308ZM1438 917V919H1440V917H1438ZM1438 787H1440V785H1438V787ZM1438 918H1440V916H1438V918ZM1308 918V916H1306V918H1308ZM1438 1048V1050H1440V1048H1438ZM1308 1048H1306V1050H1308V1048ZM1307 918H1309V916H1307V918ZM1177 918V916H1175V918H1177ZM1307 1048V1050H1309V1048H1307ZM1177 1048H1175V1050H1177V1048ZM1176 918H1178V916H1176V918ZM1046 918V916H1044V918H1046ZM1176 1048V1050H1178V1048H1176ZM1046 1048H1044V1050H1046V1048ZM1045 918H1047V916H1045V918ZM915 918V916H913V918H915ZM1045 1048V1050H1047V1048H1045ZM915 1048H913V1050H915V1048ZM914 918H916V916H914V918ZM784 918V916H782V918H784ZM914 1048V1050H916V1048H914ZM784 1048H782V1050H784V1048ZM783 918H785V916H783V918ZM653 918V916H651V918H653ZM783 1048V1050H785V1048H783ZM653 1048H651V1050H653V1048ZM652 918H654V916H652V918ZM522 918V916H520V918H522ZM652 1048V1050H654V1048H652ZM522 1048H520V1050H522V1048ZM521 918H523V916H521V918ZM391 918V916H389V918H391ZM521 1048V1050H523V1048H521ZM391 1048H389V1050H391V1048ZM390 918H392V916H390V918ZM260 918V916H258V918H260ZM390 1048V1050H392V1048H390ZM260 1048H258V1050H260V1048ZM259 918H261V916H259V918ZM129 918V916H127V918H129ZM259 1048V1050H261V1048H259ZM129 1048H127V1050H129V1048ZM129 1179H127V1181H129V1179ZM129 1049V1047H127V1049H129ZM259 1179V1181H261V1179H259ZM259 1049H261V1047H259V1049ZM260 1179H258V1181H260V1179ZM260 1049V1047H258V1049H260ZM390 1179V1181H392V1179H390ZM390 1049H392V1047H390V1049ZM391 1179H389V1181H391V1179ZM391 1049V1047H389V1049H391ZM521 1179V1181H523V1179H521ZM521 1049H523V1047H521V1049ZM522 1179H520V1181H522V1179ZM522 1049V1047H520V1049H522ZM652 1179V1181H654V1179H652ZM652 1049H654V1047H652V1049ZM653 1179H651V1181H653V1179ZM653 1049V1047H651V1049H653ZM783 1179V1181H785V1179H783ZM783 1049H785V1047H783V1049ZM784 1179H782V1181H784V1179ZM784 1049V1047H782V1049H784ZM914 1179V1181H916V1179H914ZM914 1049H916V1047H914V1049ZM915 1179H913V1181H915V1179ZM915 1049V1047H913V1049H915ZM1045 1179V1181H1047V1179H1045ZM1045 1049H1047V1047H1045V1049ZM1046 1179H1044V1181H1046V1179ZM1046 1049V1047H1044V1049H1046ZM1176 1179V1181H1178V1179H1176ZM1176 1049H1178V1047H1176V1049ZM1177 1179H1175V1181H1177V1179ZM1177 1049V1047H1175V1049H1177ZM1307 1179V1181H1309V1179H1307ZM1307 1049H1309V1047H1307V1049ZM1308 1179H1306V1181H1308V1179ZM1308 1049V1047H1306V1049H1308ZM1438 1179V1181H1440V1179H1438ZM1438 1049H1440V1047H1438V1049ZM1438 1180H1440V1178H1438V1180ZM1308 1180V1178H1306V1180H1308ZM1438 1310V1312H1440V1310H1438ZM1308 1310H1306V1312H1308V1310ZM1307 1180H1309V1178H1307V1180ZM1177 1180V1178H1175V1180H1177ZM1307 1310V1312H1309V1310H1307ZM1177 1310H1175V1312H1177V1310ZM1176 1180H1178V1178H1176V1180ZM1046 1180V1178H1044V1180H1046ZM1176 1310V1312H1178V1310H1176ZM1046 1310H1044V1312H1046V1310ZM1045 1180H1047V1178H1045V1180ZM915 1180V1178H913V1180H915ZM1045 1310V1312H1047V1310H1045ZM915 1310H913V1312H915V1310ZM914 1180H916V1178H914V1180ZM784 1180V1178H782V1180H784ZM914 1310V1312H916V1310H914ZM784 1310H782V1312H784V1310ZM783 1180H785V1178H783V1180ZM653 1180V1178H651V1180H653ZM783 1310V1312H785V1310H783ZM653 1310H651V1312H653V1310ZM652 1180H654V1178H652V1180ZM522 1180V1178H520V1180H522ZM652 1310V1312H654V1310H652ZM522 1310H520V1312H522V1310ZM521 1180H523V1178H521V1180ZM391 1180V1178H389V1180H391ZM521 1310V1312H523V1310H521ZM391 1310H389V1312H391V1310ZM390 1180H392V1178H390V1180ZM260 1180V1178H258V1180H260ZM390 1310V1312H392V1310H390ZM260 1310H258V1312H260V1310ZM259 1180H261V1178H259V1180ZM129 1180V1178H127V1180H129ZM259 1310V1312H261V1310H259ZM129 1310H127V1312H129V1310ZM129 1441H127V1443H129V1441ZM129 1311V1309H127V1311H129ZM259 1441V1443H261V1441H259ZM259 1311H261V1309H259V1311ZM260 1441H258V1443H260V1441ZM260 1311V1309H258V1311H260ZM390 1441V1443H392V1441H390ZM390 1311H392V1309H390V1311ZM391 1441H389V1443H391V1441ZM391 1311V1309H389V1311H391ZM521 1441V1443H523V1441H521ZM521 1311H523V1309H521V1311ZM522 1441H520V1443H522V1441ZM522 1311V1309H520V1311H522ZM652 1441V1443H654V1441H652ZM652 1311H654V1309H652V1311ZM653 1441H651V1443H653V1441ZM653 1311V1309H651V1311H653ZM783 1441V1443H785V1441H783ZM783 1311H785V1309H783V1311ZM784 1441H782V1443H784V1441ZM784 1311V1309H782V1311H784ZM914 1441V1443H916V1441H914ZM914 1311H916V1309H914V1311ZM915 1441H913V1443H915V1441ZM915 1311V1309H913V1311H915ZM1045 1441V1443H1047V1441H1045ZM1045 1311H1047V1309H1045V1311ZM1046 1441H1044V1443H1046V1441ZM1046 1311V1309H1044V1311H1046ZM1176 1441V1443H1178V1441H1176ZM1176 1311H1178V1309H1176V1311ZM1177 1441H1175V1443H1177V1441ZM1177 1311V1309H1175V1311H1177ZM1307 1441V1443H1309V1441H1307ZM1307 1311H1309V1309H1307V1311ZM1308 1441H1306V1443H1308V1441ZM1308 1311V1309H1306V1311H1308ZM1438 1441L1438 1443H1440V1441H1438ZM1438 1311H1440V1309H1438V1311ZM-2 1568V1570H0V1568H-2ZM-3 1568H-5V1570H-3V1568ZM-2 480H0V478H-2V480ZM-3 480V478H-5V480H-3ZM1439 1566H1438V1570H1439V1566ZM1437 1442V1568H1441V1442H1437ZM1437 1441V1442H1441V1441H1437ZM1437 1311V1441H1441V1311H1437ZM1437 1310V1311H1441V1310H1437ZM1437 1180V1310H1441V1180H1437ZM1437 1179V1180H1441V1179H1437ZM1437 1049V1179H1441V1049H1437ZM1437 1048V1049H1441V1048H1437ZM1437 918V1048H1441V918H1437ZM1437 917V918H1441V917H1437ZM1437 787V917H1441V787H1437ZM1437 786V787H1441V786H1437ZM1437 656V786H1441V656H1437ZM1437 655V656H1441V655H1437ZM1437 525V655H1441V525H1437ZM1437 524V525H1441V524H1437ZM1437 480V524H1441V480H1437ZM1438 482H1439V478H1438V482ZM1440 524V480H1436V524H1440ZM1308 526H1438V522H1308V526ZM1306 480V524H1310V480H1306ZM1307 482H1308V478H1307V482ZM1309 524V480H1305V524H1309ZM1177 526H1307V522H1177V526ZM1175 480V524H1179V480H1175ZM1176 482H1177V478H1176V482ZM1178 524V480H1174V524H1178ZM1046 526H1176V522H1046V526ZM1044 480V524H1048V480H1044ZM1045 482H1046V478H1045V482ZM1047 524V480H1043V524H1047ZM915 526H1045V522H915V526ZM913 480V524H917V480H913ZM914 482H915V478H914V482ZM916 524V480H912V524H916ZM784 526H914V522H784V526ZM782 480V524H786V480H782ZM783 482H784V478H783V482ZM785 524V480H781V524H785ZM653 526L783 526V522L653 522V526ZM651 480V524H655V480H651ZM652 482H653V478H652V482ZM654 524V480H650V524H654ZM522 526H652V522H522V526ZM520 480V524H524V480H520ZM521 482H522V478H521V482ZM523 524V480H519V524H523ZM391 526H521V522H391V526ZM389 480V524H393V480H389ZM390 482H391V478H390V482ZM392 524V480H388V524H392ZM260 526H390V522H260V526ZM258 480V524H262V480H258ZM259 482H260V478H259V482ZM261 524V480H257V524H261ZM129 526H259V522H129V526ZM127 480V524H131V480H127ZM128 482H129V478H128V482ZM130 524V480H126V524H130ZM-1 526H128V522H-1V526ZM1 525V524H-3V525H1ZM128 523H-1V527H128V523ZM130 655V525H126V655H130ZM-1 657H128V653H-1V657ZM1 656V655H-3V656H1ZM128 654H-1V658H128V654ZM130 786V656H126V786H130ZM-1 788H128V784H-1V788ZM1 787V786H-3V787H1ZM128 785H-1V789H128V785ZM130 917V787H126V917H130ZM-1 919H128V915H-1V919ZM1 918V917H-3V918H1ZM128 916H-1V920H128V916ZM130 1048V918H126V1048H130ZM-1 1050H128V1046H-1V1050ZM1 1049V1048H-3V1049H1ZM128 1047H-1V1051H128V1047ZM130 1179V1049H126V1179H130ZM-1 1181H128V1177H-1V1181ZM1 1180V1179H-3V1180H1ZM128 1178H-1V1182H128V1178ZM130 1310V1180H126V1310H130ZM-1 1312H128V1308H-1V1312ZM1 1311V1310H-3V1311H1ZM128 1309H-1V1313H128V1309ZM130 1441V1311H126V1441H130ZM-1 1443L128 1443V1439H-1V1443ZM1 1442V1441H-3V1442H1ZM128 1440L-1 1440V1444L128 1444V1440ZM130 1568V1442H126V1568H130ZM129 1566H128V1570H129V1566ZM127 1442V1568H131V1442H127ZM259 1440H129V1444H259V1440ZM261 1568V1442H257V1568H261ZM260 1566H259V1570H260V1566ZM258 1442V1568H262V1442H258ZM390 1440L260 1440V1444L390 1444V1440ZM392 1568V1442H388V1568H392ZM391 1566H390V1570H391V1566ZM389 1442V1568H393V1442H389ZM521 1440L391 1440V1444L521 1444V1440ZM523 1568V1442H519V1568H523ZM522 1566H521V1570H522V1566ZM520 1442V1568H524V1442H520ZM652 1440L522 1440V1444L652 1444V1440ZM654 1568V1442H650V1568H654ZM653 1566H652V1570H653V1566ZM651 1442V1568H655V1442H651ZM783 1440H653V1444H783V1440ZM785 1568V1442H781V1568H785ZM784 1566H783V1570H784V1566ZM782 1442V1568H786V1442H782ZM914 1440L784 1440V1444L914 1444V1440ZM916 1568V1442H912V1568H916ZM915 1566H914V1570H915V1566ZM913 1442V1568H917V1442H913ZM1045 1440L915 1440V1444L1045 1444V1440ZM1047 1568V1442H1043V1568H1047ZM1046 1566H1045V1570H1046V1566ZM1044 1442V1568H1048V1442H1044ZM1176 1440L1046 1440V1444L1176 1444V1440ZM1178 1568V1442H1174V1568H1178ZM1177 1566H1176V1570H1177V1566ZM1175 1442V1568H1179V1442H1175ZM1307 1440H1177V1444H1307V1440ZM1309 1568V1442H1305V1568H1309ZM1308 1566H1307V1570H1308V1566ZM1306 1442V1568H1310V1442H1306ZM1438 1440L1308 1440V1444L1438 1444L1438 1440ZM1440 1568V1442H1436V1568H1440ZM127 525V655H131V525H127ZM129 657H259V653H129V657ZM261 655V525H257V655H261ZM259 523H129V527H259V523ZM258 525V655H262V525H258ZM260 657H390V653H260V657ZM392 655V525H388V655H392ZM390 523H260V527H390V523ZM389 525V655H393V525H389ZM391 657H521V653H391V657ZM523 655V525H519V655H523ZM521 523H391V527H521V523ZM520 525V655H524V525H520ZM522 657H652V653H522V657ZM654 655V525H650V655H654ZM652 523H522V527H652V523ZM651 525V655H655V525H651ZM653 657L783 657V653L653 653V657ZM785 655V525H781V655H785ZM783 523L653 523V527L783 527V523ZM782 525V655H786V525H782ZM784 657H914V653H784V657ZM916 655V525H912V655H916ZM914 523H784V527H914V523ZM913 525V655H917V525H913ZM915 657H1045V653H915V657ZM1047 655V525H1043V655H1047ZM1045 523H915V527H1045V523ZM1044 525V655H1048V525H1044ZM1046 657H1176V653H1046V657ZM1178 655V525H1174V655H1178ZM1176 523H1046V527H1176V523ZM1175 525V655H1179V525H1175ZM1177 657H1307V653H1177V657ZM1309 655V525H1305V655H1309ZM1307 523H1177V527H1307V523ZM1306 525V655H1310V525H1306ZM1308 657H1438V653H1308V657ZM1440 655V525H1436V655H1440ZM1438 523H1308V527H1438V523ZM1438 654H1308V658H1438V654ZM1440 786V656H1436V786H1440ZM1308 788H1438V784H1308V788ZM1306 656V786H1310V656H1306ZM1307 654H1177V658H1307V654ZM1309 786V656H1305V786H1309ZM1177 788H1307V784H1177V788ZM1175 656V786H1179V656H1175ZM1176 654H1046V658H1176V654ZM1178 786V656H1174V786H1178ZM1046 788H1176V784H1046V788ZM1044 656V786H1048V656H1044ZM1045 654H915V658H1045V654ZM1047 786V656H1043V786H1047ZM915 788H1045V784H915V788ZM913 656V786H917V656H913ZM914 654H784V658H914V654ZM916 786V656H912V786H916ZM784 788H914V784H784V788ZM782 656V786H786V656H782ZM783 654L653 654V658L783 658V654ZM785 786V656H781V786H785ZM653 788L783 788V784L653 784V788ZM651 656V786H655V656H651ZM652 654H522V658H652V654ZM654 786V656H650V786H654ZM522 788H652V784H522V788ZM520 656V786H524V656H520ZM521 654H391V658H521V654ZM523 786V656H519V786H523ZM391 788H521V784H391V788ZM389 656V786H393V656H389ZM390 654H260V658H390V654ZM392 786V656H388V786H392ZM260 788H390V784H260V788ZM258 656V786H262V656H258ZM259 654H129V658H259V654ZM261 786V656H257V786H261ZM129 788H259V784H129V788ZM127 656V786H131V656H127ZM131 917V787H127V917H131ZM259 915H129V919H259V915ZM257 787V917H261V787H257ZM129 789H259V785H129V789ZM262 917V787H258V917H262ZM390 915H260V919H390V915ZM388 787V917H392V787H388ZM260 789H390V785H260V789ZM393 917V787H389V917H393ZM521 915H391V919H521V915ZM519 787V917H523V787H519ZM391 789H521V785H391V789ZM524 917V787H520V917H524ZM652 915H522V919H652V915ZM650 787V917H654V787H650ZM522 789H652V785H522V789ZM655 917V787H651V917H655ZM783 915L653 915V919L783 919V915ZM781 787V917H785V787H781ZM653 789L783 789V785L653 785V789ZM786 917V787H782V917H786ZM914 915H784V919H914V915ZM912 787V917H916V787H912ZM784 789H914V785H784V789ZM917 917V787H913V917H917ZM1045 915H915V919H1045V915ZM1043 787V917H1047V787H1043ZM915 789H1045V785H915V789ZM1048 917V787H1044V917H1048ZM1176 915H1046V919H1176V915ZM1174 787V917H1178V787H1174ZM1046 789H1176V785H1046V789ZM1179 917V787H1175V917H1179ZM1307 915H1177V919H1307V915ZM1305 787V917H1309V787H1305ZM1177 789H1307V785H1177V789ZM1310 917V787H1306V917H1310ZM1438 915H1308V919H1438V915ZM1436 787V917H1440V787H1436ZM1308 789H1438V785H1308V789ZM1438 916H1308V920H1438V916ZM1440 1048V918H1436V1048H1440ZM1308 1050H1438V1046H1308V1050ZM1306 918V1048H1310V918H1306ZM1307 916H1177V920H1307V916ZM1309 1048V918H1305V1048H1309ZM1177 1050H1307V1046H1177V1050ZM1175 918V1048H1179V918H1175ZM1176 916H1046V920H1176V916ZM1178 1048V918H1174V1048H1178ZM1046 1050H1176V1046H1046V1050ZM1044 918V1048H1048V918H1044ZM1045 916H915V920H1045V916ZM1047 1048V918H1043V1048H1047ZM915 1050H1045V1046H915V1050ZM913 918V1048H917V918H913ZM914 916H784V920H914V916ZM916 1048V918H912V1048H916ZM784 1050H914V1046H784V1050ZM782 918V1048H786V918H782ZM783 916L653 916V920L783 920V916ZM785 1048V918H781V1048H785ZM653 1050L783 1050V1046L653 1046V1050ZM651 918V1048H655V918H651ZM652 916H522V920H652V916ZM654 1048V918H650V1048H654ZM522 1050H652V1046H522V1050ZM520 918V1048H524V918H520ZM521 916H391V920H521V916ZM523 1048V918H519V1048H523ZM391 1050H521V1046H391V1050ZM389 918V1048H393V918H389ZM390 916H260V920H390V916ZM392 1048V918H388V1048H392ZM260 1050H390V1046H260V1050ZM258 918V1048H262V918H258ZM259 916H129V920H259V916ZM261 1048V918H257V1048H261ZM129 1050H259V1046H129V1050ZM127 918V1048H131V918H127ZM131 1179V1049H127V1179H131ZM259 1177H129V1181H259V1177ZM257 1049V1179H261V1049H257ZM129 1051H259V1047H129V1051ZM262 1179V1049H258V1179H262ZM390 1177L260 1177V1181L390 1181V1177ZM388 1049V1179H392V1049H388ZM260 1051H390V1047H260V1051ZM393 1179V1049H389V1179H393ZM521 1177H391V1181H521V1177ZM519 1049V1179H523V1049H519ZM391 1051H521V1047H391V1051ZM524 1179V1049H520V1179H524ZM652 1177H522V1181H652V1177ZM650 1049V1179H654V1049H650ZM522 1051H652V1047H522V1051ZM655 1179V1049H651V1179H655ZM783 1177H653V1181H783V1177ZM781 1049V1179H785V1049H781ZM653 1051L783 1051V1047L653 1047V1051ZM786 1179V1049H782V1179H786ZM914 1177H784V1181H914V1177ZM912 1049V1179H916V1049H912ZM784 1051H914V1047H784V1051ZM917 1179V1049H913V1179H917ZM1045 1177H915V1181H1045V1177ZM1043 1049V1179H1047V1049H1043ZM915 1051H1045V1047H915V1051ZM1048 1179V1049H1044V1179H1048ZM1176 1177L1046 1177V1181L1176 1181V1177ZM1174 1049V1179H1178V1049H1174ZM1046 1051H1176V1047H1046V1051ZM1179 1179V1049H1175V1179H1179ZM1307 1177H1177V1181H1307V1177ZM1305 1049V1179H1309V1049H1305ZM1177 1051H1307V1047H1177V1051ZM1310 1179V1049H1306V1179H1310ZM1438 1177H1308V1181H1438V1177ZM1436 1049V1179H1440V1049H1436ZM1308 1051H1438V1047H1308V1051ZM1438 1178H1308V1182H1438V1178ZM1440 1310V1180H1436V1310H1440ZM1308 1312H1438V1308H1308V1312ZM1306 1180V1310H1310V1180H1306ZM1307 1178H1177V1182H1307V1178ZM1309 1310V1180H1305V1310H1309ZM1177 1312H1307V1308H1177V1312ZM1175 1180V1310H1179V1180H1175ZM1176 1178L1046 1178V1182L1176 1182V1178ZM1178 1310V1180H1174V1310H1178ZM1046 1312L1176 1312V1308L1046 1308V1312ZM1044 1180V1310H1048V1180H1044ZM1045 1178H915V1182H1045V1178ZM1047 1310V1180H1043V1310H1047ZM915 1312H1045V1308H915V1312ZM913 1180V1310H917V1180H913ZM914 1178H784V1182H914V1178ZM916 1310V1180H912V1310H916ZM784 1312H914V1308H784V1312ZM782 1180V1310H786V1180H782ZM783 1178H653V1182H783V1178ZM785 1310V1180H781V1310H785ZM653 1312H783V1308H653V1312ZM651 1180V1310H655V1180H651ZM652 1178H522V1182H652V1178ZM654 1310V1180H650V1310H654ZM522 1312H652V1308H522V1312ZM520 1180V1310H524V1180H520ZM521 1178H391V1182H521V1178ZM523 1310V1180H519V1310H523ZM391 1312H521V1308H391V1312ZM389 1180V1310H393V1180H389ZM390 1178L260 1178V1182L390 1182V1178ZM392 1310V1180H388V1310H392ZM260 1312L390 1312V1308L260 1308V1312ZM258 1180V1310H262V1180H258ZM259 1178H129V1182H259V1178ZM261 1310V1180H257V1310H261ZM129 1312H259V1308H129V1312ZM127 1180V1310H131V1180H127ZM131 1441V1311H127V1441H131ZM259 1439H129V1443H259V1439ZM257 1311V1441H261V1311H257ZM129 1313H259V1309H129V1313ZM262 1441V1311H258V1441H262ZM390 1439L260 1439V1443L390 1443V1439ZM388 1311V1441H392V1311H388ZM260 1313L390 1313V1309L260 1309V1313ZM393 1441V1311H389V1441H393ZM521 1439L391 1439V1443L521 1443V1439ZM519 1311V1441H523V1311H519ZM391 1313H521V1309H391V1313ZM524 1441V1311H520V1441H524ZM652 1439H522V1443L652 1443V1439ZM650 1311V1441H654V1311H650ZM522 1313H652V1309H522V1313ZM655 1441V1311H651V1441H655ZM783 1439H653V1443H783V1439ZM781 1311V1441H785V1311H781ZM653 1313H783V1309H653V1313ZM786 1441V1311H782V1441H786ZM914 1439H784V1443L914 1443V1439ZM912 1311V1441H916V1311H912ZM784 1313H914V1309H784V1313ZM917 1441V1311H913V1441H917ZM1045 1439L915 1439V1443L1045 1443V1439ZM1043 1311V1441H1047V1311H1043ZM915 1313H1045V1309H915V1313ZM1048 1441V1311H1044V1441H1048ZM1176 1439L1046 1439V1443L1176 1443V1439ZM1174 1311V1441H1178V1311H1174ZM1046 1313L1176 1313V1309L1046 1309V1313ZM1179 1441V1311H1175V1441H1179ZM1307 1439H1177V1443H1307V1439ZM1305 1311V1441H1309V1311H1305ZM1177 1313H1307V1309H1177V1313ZM1310 1441V1311H1306V1441H1310ZM1438 1439H1308V1443L1438 1443L1438 1439ZM1436 1311V1441H1440V1311H1436ZM1308 1313H1438V1309H1308V1313ZM-2 1566H-3V1570H-2V1566ZM-4 480V1568H0V480H-4ZM-3 482H-2V478H-3V482ZM-1 1568V480H-5V1568H-1Z" fill="url(#paint2_radial_368_500)" mask="url(#path-3-inside-1_368_500)"/>
</g>
<defs>
<filter id="filter0_f_368_500" x="853.944" y="1108.55" width="1613.59" height="1092.43" filterUnits="userSpaceOnUse" color-interpolation-filters="sRGB">
<feFlood flood-opacity="0" result="BackgroundImageFix"/>
<feBlend mode="normal" in="SourceGraphic" in2="BackgroundImageFix" result="shape"/>
<feGaussianBlur stdDeviation="100" result="effect1_foregroundBlur_368_500"/>
</filter>
<filter id="filter1_f_368_500" x="-801" y="-571.76" width="1467.05" height="1356.04" filterUnits="userSpaceOnUse" color-interpolation-filters="sRGB">
<feFlood flood-opacity="0" result="BackgroundImageFix"/>
<feBlend mode="normal" in="SourceGraphic" in2="BackgroundImageFix" result="shape"/>
<feGaussianBlur stdDeviation="100" result="effect1_foregroundBlur_368_500"/>
</filter>
<linearGradient id="paint0_linear_368_500" x1="1646.01" y1="1108.41" x2="2040.72" y2="2046.31" gradientUnits="userSpaceOnUse">
<stop stop-color="#B3E9FA"/>
<stop offset="0.884176" stop-color="#FDE9A3"/>
</linearGradient>
<linearGradient id="paint1_linear_368_500" x1="-217.322" y1="552.117" x2="-238.575" y2="-465.229" gradientUnits="userSpaceOnUse">
<stop stop-color="#B3E9FA"/>
<stop offset="0.884176" stop-color="#FDE9A3"/>
</linearGradient>
<radialGradient id="paint2_radial_368_500" cx="0" cy="0" r="1" gradientUnits="userSpaceOnUse" gradientTransform="translate(998.5 840) rotate(135.895) scale(497.864 397.241)">
<stop stop-color="#606062"/>
<stop offset="0.631051" stop-color="#606062" stop-opacity="0.2"/>
</radialGradient>
<clipPath id="clip0_368_500">
<rect width="1440" height="1554" fill="white" transform="translate(-1)"/>
</clipPath>
</defs>
</svg>
