<svg width="1440" height="1068" viewBox="0 0 1440 1068" fill="none" xmlns="http://www.w3.org/2000/svg">
<g clip-path="url(#clip0_368_142)">
<rect width="1440" height="1068" fill="#061D27"/>
<g opacity="0.2" filter="url(#filter0_f_368_142)">
<path fill-rule="evenodd" clip-rule="evenodd" d="M-574.828 1009.49L-650 1521.64L518.452 1058.9L111.343 737.753L111.348 737.762L-231.738 873.631L-574.825 1009.5L-574.828 1009.49Z" fill="url(#paint0_linear_368_142)"/>
</g>
<mask id="path-2-inside-1_368_142" fill="white">
<path fill-rule="evenodd" clip-rule="evenodd" d="M1440 1244V1245L0 1245V1244L1440 1244ZM1439 1243H1440V1114V1113V983.001V982.001V852V851V721V720V590V589V459V458V328V327V283H1439V327H1309V283H1308V327H1178V283H1177V327H1047V283H1046V327H916V283H915V327H785V283H784V327L654 327V283H653V327H523V283H522V327H392V283H391V327H261V283H260V327H130V283H129V327H0V328H129V458H0V459H129V589H0V590H129V720H0V721H129V851.001H0V852.001H129V982.001H0V983.001H129V1113H0V1114H129V1243H130V1114L260 1114V1243H261V1114H391V1243H392V1114H522V1243H523V1114L653 1114V1243H654V1114H784V1243H785V1114L915 1114V1243H916V1114H1046V1243H1047V1114H1177V1243H1178V1114L1308 1114V1243H1309V1114H1439V1243ZM130 328V458H260V328H130ZM261 328V458H391V328H261ZM392 328V458H522V328H392ZM523 328V458H653V328H523ZM654 328V458L784 458V328L654 328ZM785 328V458H915V328H785ZM916 328V458H1046V328H916ZM1047 328V458H1177V328H1047ZM1178 328V458H1308V328H1178ZM1309 328V458H1439V328H1309ZM1309 459H1439V589H1309V459ZM1178 459H1308V589H1178V459ZM1047 459H1177V589H1047V459ZM916 459H1046V589H916V459ZM785 459H915V589H785V459ZM654 459L784 459V589L654 589V459ZM523 459H653V589H523V459ZM392 459H522V589H392V459ZM261 459H391V589H261V459ZM130 459H260V589H130V459ZM130 590V720H260V590H130ZM261 590V720H391V590H261ZM392 590V720H522V590H392ZM523 590V720H653V590H523ZM654 590V720L784 720V590L654 590ZM785 590V720H915V590H785ZM916 590V720H1046V590H916ZM1047 590V720H1177V590H1047ZM1178 590V720H1308V590H1178ZM1309 590V720H1439V590H1309ZM1309 721H1439V851H1309V721ZM1178 721H1308V851H1178V721ZM1047 721H1177V851L1047 851V721ZM916 721H1046V851H916V721ZM785 721H915V851H785V721ZM654 721L784 721V851H654V721ZM523 721H653V851H523V721ZM392 721H522V851H392V721ZM261 721H391V851L261 851.001V721ZM130 721H260V851.001H130V721ZM130 852.001V982.001H260V852.001H130ZM261 852.001V982.001L391 982.001V852L261 852.001ZM392 852V982.001H522V852H392ZM523 852V982.001H653V852H523ZM654 852V982.001H784V852H654ZM785 852V982.001H915V852H785ZM916 852V982.001H1046V852H916ZM1047 852V982.001L1177 982.001V852L1047 852ZM1178 852V982.001H1308V852H1178ZM1309 852V982.001H1439V852H1309ZM1309 983.001H1439V1113H1309V983.001ZM1178 983.001H1308V1113L1178 1113V983.001ZM1047 983.001L1177 983.001V1113H1047V983.001ZM916 983.001H1046V1113H916V983.001ZM785 983.001H915V1113L785 1113V983.001ZM654 983.001H784V1113H654V983.001ZM523 983.001H653V1113L523 1113V983.001ZM392 983.001H522V1113H392V983.001ZM261 983.001L391 983.001V1113H261V983.001ZM130 983.001H260V1113L130 1113V983.001ZM-2 1243H-1V283H-2V1243Z"/>
</mask>
<path d="M1440 1245L1440 1247L1442 1247V1245H1440ZM1440 1244H1442V1242H1440L1440 1244ZM0 1245H-2V1247H0V1245ZM0 1244V1242H-2V1244H0ZM1440 1243V1245H1442V1243H1440ZM1439 1243H1437V1245H1439V1243ZM1440 283H1442V281H1440V283ZM1439 283V281H1437V283H1439ZM1439 327V329H1441V327H1439ZM1309 327H1307V329H1309V327ZM1309 283H1311V281H1309V283ZM1308 283V281H1306V283H1308ZM1308 327V329H1310V327H1308ZM1178 327H1176V329H1178V327ZM1178 283H1180V281H1178V283ZM1177 283V281H1175V283H1177ZM1177 327V329H1179V327H1177ZM1047 327H1045V329H1047V327ZM1047 283H1049V281H1047V283ZM1046 283V281H1044V283H1046ZM1046 327V329H1048V327H1046ZM916 327H914V329H916V327ZM916 283H918V281H916V283ZM915 283V281H913V283H915ZM915 327V329H917V327H915ZM785 327H783V329H785V327ZM785 283H787V281H785V283ZM784 283V281H782V283H784ZM784 327V329H786V327H784ZM654 327H652V329H654V327ZM654 283H656V281H654V283ZM653 283V281H651V283H653ZM653 327V329H655V327H653ZM523 327H521V329H523V327ZM523 283H525V281H523V283ZM522 283V281H520V283H522ZM522 327V329H524V327H522ZM392 327H390V329H392V327ZM392 283H394V281H392V283ZM391 283V281H389V283H391ZM391 327V329H393V327H391ZM261 327H259V329H261V327ZM261 283H263V281H261V283ZM260 283V281H258V283H260ZM260 327V329H262V327H260ZM130 327H128V329H130V327ZM130 283H132V281H130V283ZM129 283V281H127V283H129ZM129 327V329H131V327H129ZM0 327V325H-2V327H0ZM0 328H-2V330H0V328ZM129 328H131V326H129V328ZM129 458V460H131V458H129ZM0 458V456H-2V458H0ZM0 459H-2V461H0V459ZM129 459H131V457H129V459ZM129 589V591H131V589H129ZM0 589V587H-2V589H0ZM0 590H-2V592H0V590ZM129 590H131V588H129V590ZM129 720V722H131V720H129ZM0 720V718H-2V720H0ZM0 721H-2V723H0V721ZM129 721H131V719H129V721ZM129 851.001V853.001H131V851.001H129ZM0 851.001V849.001H-2V851.001H0ZM0 852.001H-2V854.001H0V852.001ZM129 852.001H131V850.001H129V852.001ZM129 982.001V984.001H131V982.001H129ZM0 982.001V980.001H-2V982.001H0ZM0 983.001H-2V985.001H0V983.001ZM129 983.001H131V981.001H129V983.001ZM129 1113V1115H131V1113H129ZM0 1113V1111H-2V1113H0ZM0 1114H-2V1116H0V1114ZM129 1114H131V1112H129V1114ZM129 1243H127V1245H129V1243ZM130 1243V1245H132V1243H130ZM130 1114V1112H128V1114H130ZM260 1114H262V1112H260V1114ZM260 1243H258V1245H260V1243ZM261 1243V1245H263V1243H261ZM261 1114V1112H259V1114H261ZM391 1114H393V1112H391V1114ZM391 1243H389V1245H391V1243ZM392 1243V1245H394V1243H392ZM392 1114V1112H390V1114H392ZM522 1114H524V1112H522V1114ZM522 1243H520V1245H522V1243ZM523 1243V1245H525V1243H523ZM523 1114V1112H521V1114H523ZM653 1114H655V1112H653V1114ZM653 1243H651V1245H653V1243ZM654 1243V1245H656V1243H654ZM654 1114V1112H652V1114H654ZM784 1114H786V1112H784V1114ZM784 1243H782V1245H784V1243ZM785 1243V1245H787V1243H785ZM785 1114V1112H783V1114H785ZM915 1114H917V1112H915V1114ZM915 1243H913V1245H915V1243ZM916 1243V1245H918V1243H916ZM916 1114V1112H914V1114H916ZM1046 1114H1048V1112H1046V1114ZM1046 1243H1044V1245H1046V1243ZM1047 1243V1245H1049V1243H1047ZM1047 1114V1112H1045V1114H1047ZM1177 1114H1179V1112H1177V1114ZM1177 1243H1175V1245H1177V1243ZM1178 1243V1245H1180V1243H1178ZM1178 1114V1112H1176V1114H1178ZM1308 1114H1310V1112H1308V1114ZM1308 1243H1306V1245H1308V1243ZM1309 1243V1245H1311V1243H1309ZM1309 1114V1112H1307V1114H1309ZM1439 1114H1441V1112H1439V1114ZM130 328V326H128V328H130ZM130 458H128V460H130V458ZM260 458V460H262V458H260ZM260 328H262V326H260V328ZM261 328V326H259V328H261ZM261 458H259V460H261V458ZM391 458V460H393V458H391ZM391 328H393V326H391V328ZM392 328V326H390V328H392ZM392 458H390V460H392V458ZM522 458V460H524V458H522ZM522 328H524V326H522V328ZM523 328V326H521V328H523ZM523 458H521V460H523V458ZM653 458V460H655V458H653ZM653 328H655V326H653V328ZM654 328V326H652V328H654ZM654 458H652V460H654V458ZM784 458V460H786V458H784ZM784 328H786V326H784V328ZM785 328V326H783V328H785ZM785 458H783V460H785V458ZM915 458V460H917V458H915ZM915 328H917V326H915V328ZM916 328V326H914V328H916ZM916 458H914V460H916V458ZM1046 458V460H1048V458H1046ZM1046 328H1048V326H1046V328ZM1047 328V326H1045V328H1047ZM1047 458H1045V460H1047V458ZM1177 458V460H1179V458H1177ZM1177 328H1179V326H1177V328ZM1178 328V326H1176V328H1178ZM1178 458H1176V460H1178V458ZM1308 458V460H1310V458H1308ZM1308 328H1310V326H1308V328ZM1309 328V326H1307V328H1309ZM1309 458H1307V460H1309V458ZM1439 458V460H1441V458H1439ZM1439 328H1441V326H1439V328ZM1439 459H1441V457H1439V459ZM1309 459V457H1307V459H1309ZM1439 589V591H1441V589H1439ZM1309 589H1307V591H1309V589ZM1308 459H1310V457H1308V459ZM1178 459V457H1176V459H1178ZM1308 589V591H1310V589H1308ZM1178 589H1176V591H1178V589ZM1177 459H1179V457H1177V459ZM1047 459V457H1045V459H1047ZM1177 589V591H1179V589H1177ZM1047 589H1045V591H1047V589ZM1046 459H1048V457H1046V459ZM916 459V457H914V459H916ZM1046 589V591H1048V589H1046ZM916 589H914V591H916V589ZM915 459H917V457H915V459ZM785 459V457H783V459H785ZM915 589V591H917V589H915ZM785 589H783V591H785V589ZM784 459H786V457H784V459ZM654 459V457H652V459H654ZM784 589V591H786V589H784ZM654 589H652V591H654V589ZM653 459H655V457H653V459ZM523 459V457H521V459H523ZM653 589V591H655V589H653ZM523 589H521V591H523V589ZM522 459H524V457H522V459ZM392 459V457H390V459H392ZM522 589V591H524V589H522ZM392 589H390V591H392V589ZM391 459H393V457H391V459ZM261 459V457H259V459H261ZM391 589V591H393V589H391ZM261 589H259V591H261V589ZM260 459H262V457H260V459ZM130 459V457H128V459H130ZM260 589V591H262V589H260ZM130 589H128V591H130V589ZM130 720H128V722H130V720ZM130 590V588H128V590H130ZM260 720V722H262V720H260ZM260 590H262V588H260V590ZM261 720H259V722H261V720ZM261 590V588H259V590H261ZM391 720V722H393V720H391ZM391 590H393V588H391V590ZM392 720H390V722H392V720ZM392 590V588H390V590H392ZM522 720V722H524V720H522ZM522 590H524V588H522V590ZM523 720H521V722H523V720ZM523 590V588H521V590H523ZM653 720V722H655V720H653ZM653 590H655V588H653V590ZM654 720H652V722H654V720ZM654 590V588H652V590H654ZM784 720V722H786V720H784ZM784 590H786V588H784V590ZM785 720H783V722H785V720ZM785 590V588H783V590H785ZM915 720V722H917V720H915ZM915 590H917V588H915V590ZM916 720H914V722H916V720ZM916 590V588H914V590H916ZM1046 720V722H1048V720H1046ZM1046 590H1048V588H1046V590ZM1047 720H1045V722H1047V720ZM1047 590V588H1045V590H1047ZM1177 720V722H1179V720H1177ZM1177 590H1179V588H1177V590ZM1178 720H1176V722H1178V720ZM1178 590V588H1176V590H1178ZM1308 720V722H1310V720H1308ZM1308 590H1310V588H1308V590ZM1309 720H1307V722H1309V720ZM1309 590V588H1307V590H1309ZM1439 720V722H1441V720H1439ZM1439 590H1441V588H1439V590ZM1439 721H1441V719H1439V721ZM1309 721V719H1307V721H1309ZM1439 851V853H1441V851H1439ZM1309 851H1307V853H1309V851ZM1308 721H1310V719H1308V721ZM1178 721V719H1176V721H1178ZM1308 851V853H1310V851H1308ZM1178 851H1176V853H1178V851ZM1177 721H1179V719H1177V721ZM1047 721V719H1045V721H1047ZM1177 851V853H1179V851H1177ZM1047 851H1045V853H1047V851ZM1046 721H1048V719H1046V721ZM916 721V719H914V721H916ZM1046 851V853H1048V851H1046ZM916 851H914V853H916V851ZM915 721H917V719H915V721ZM785 721V719H783V721H785ZM915 851V853H917V851H915ZM785 851H783V853H785V851ZM784 721H786V719H784V721ZM654 721V719H652V721H654ZM784 851V853H786V851H784ZM654 851H652V853H654V851ZM653 721H655V719H653V721ZM523 721V719H521V721H523ZM653 851V853H655V851H653ZM523 851H521V853H523V851ZM522 721H524V719H522V721ZM392 721V719H390V721H392ZM522 851V853H524V851H522ZM392 851H390V853H392V851ZM391 721H393V719H391V721ZM261 721V719H259V721H261ZM391 851V853H393V851H391ZM261 851.001H259V853.001H261V851.001ZM260 721H262V719H260V721ZM130 721V719H128V721H130ZM260 851.001V853.001H262V851.001H260ZM130 851.001H128V853.001H130V851.001ZM130 982.001H128V984.001H130V982.001ZM130 852.001V850.001H128V852.001H130ZM260 982.001V984.001H262V982.001H260ZM260 852.001H262V850.001H260V852.001ZM261 982.001H259V984.001H261V982.001ZM261 852.001V850.001H259V852.001H261ZM391 982.001V984.001H393V982.001H391ZM391 852H393V850H391V852ZM392 982.001H390V984.001H392V982.001ZM392 852V850H390V852H392ZM522 982.001V984.001H524V982.001H522ZM522 852H524V850H522V852ZM523 982.001H521V984.001H523V982.001ZM523 852V850H521V852H523ZM653 982.001V984.001H655V982.001H653ZM653 852H655V850H653V852ZM654 982.001H652V984.001H654V982.001ZM654 852V850H652V852H654ZM784 982.001V984.001H786V982.001H784ZM784 852H786V850H784V852ZM785 982.001H783V984.001H785V982.001ZM785 852V850H783V852H785ZM915 982.001V984.001H917V982.001H915ZM915 852H917V850H915V852ZM916 982.001H914V984.001H916V982.001ZM916 852V850H914V852H916ZM1046 982.001V984.001H1048V982.001H1046ZM1046 852H1048V850H1046V852ZM1047 982.001H1045V984.001H1047V982.001ZM1047 852V850H1045V852H1047ZM1177 982.001V984.001H1179V982.001H1177ZM1177 852H1179V850H1177V852ZM1178 982.001H1176V984.001H1178V982.001ZM1178 852V850H1176V852H1178ZM1308 982.001V984.001H1310V982.001H1308ZM1308 852H1310V850H1308V852ZM1309 982.001H1307V984.001H1309V982.001ZM1309 852V850H1307V852H1309ZM1439 982.001V984.001H1441V982.001H1439ZM1439 852H1441V850H1439V852ZM1439 983.001H1441V981.001H1439V983.001ZM1309 983.001V981.001H1307V983.001H1309ZM1439 1113V1115H1441V1113H1439ZM1309 1113H1307V1115H1309V1113ZM1308 983.001H1310V981.001H1308V983.001ZM1178 983.001V981.001H1176V983.001H1178ZM1308 1113V1115H1310V1113H1308ZM1178 1113H1176V1115H1178V1113ZM1177 983.001H1179V981.001H1177V983.001ZM1047 983.001V981.001H1045V983.001H1047ZM1177 1113V1115H1179V1113H1177ZM1047 1113H1045V1115H1047V1113ZM1046 983.001H1048V981.001H1046V983.001ZM916 983.001V981.001H914V983.001H916ZM1046 1113V1115H1048V1113H1046ZM916 1113H914V1115H916V1113ZM915 983.001H917V981.001H915V983.001ZM785 983.001V981.001H783V983.001H785ZM915 1113V1115H917V1113H915ZM785 1113H783V1115H785V1113ZM784 983.001H786V981.001H784V983.001ZM654 983.001V981.001H652V983.001H654ZM784 1113V1115H786V1113H784ZM654 1113H652V1115H654V1113ZM653 983.001H655V981.001H653V983.001ZM523 983.001V981.001H521V983.001H523ZM653 1113V1115H655V1113H653ZM523 1113H521V1115H523V1113ZM522 983.001H524V981.001H522V983.001ZM392 983.001V981.001H390V983.001H392ZM522 1113V1115H524V1113H522ZM392 1113H390V1115H392V1113ZM391 983.001H393V981.001H391V983.001ZM261 983.001V981.001H259V983.001H261ZM391 1113V1115H393V1113H391ZM261 1113H259V1115H261V1113ZM260 983.001H262V981.001H260V983.001ZM130 983.001V981.001H128V983.001H130ZM260 1113V1115H262V1113H260ZM130 1113H128V1115H130V1113ZM-1 1243V1245H1V1243H-1ZM-2 1243H-4V1245H-2V1243ZM-1 283H1V281H-1V283ZM-2 283V281H-4V283H-2ZM1442 1245V1244H1438V1245H1442ZM0 1247L1440 1247L1440 1243L0 1243V1247ZM-2 1244V1245H2V1244H-2ZM1440 1242L0 1242V1246L1440 1246L1440 1242ZM1440 1241H1439V1245H1440V1241ZM1438 1114V1243H1442V1114H1438ZM1438 1113V1114H1442V1113H1438ZM1438 983.001V1113H1442V983.001H1438ZM1438 982.001V983.001H1442V982.001H1438ZM1438 852V982.001H1442V852H1438ZM1438 851V852H1442V851H1438ZM1438 721V851H1442V721H1438ZM1438 720V721H1442V720H1438ZM1438 590V720H1442V590H1438ZM1438 589V590H1442V589H1438ZM1438 459V589H1442V459H1438ZM1438 458V459H1442V458H1438ZM1438 328V458H1442V328H1438ZM1438 327V328H1442V327H1438ZM1438 283V327H1442V283H1438ZM1439 285H1440V281H1439V285ZM1441 327V283H1437V327H1441ZM1309 329H1439V325H1309V329ZM1307 283V327H1311V283H1307ZM1308 285H1309V281H1308V285ZM1310 327V283H1306V327H1310ZM1178 329H1308V325H1178V329ZM1176 283V327H1180V283H1176ZM1177 285H1178V281H1177V285ZM1179 327V283H1175V327H1179ZM1047 329H1177V325H1047V329ZM1045 283V327H1049V283H1045ZM1046 285H1047V281H1046V285ZM1048 327V283H1044V327H1048ZM916 329H1046V325H916V329ZM914 283V327H918V283H914ZM915 285H916V281H915V285ZM917 327V283H913V327H917ZM785 329H915V325H785V329ZM783 283V327H787V283H783ZM784 285H785V281H784V285ZM786 327V283H782V327H786ZM654 329L784 329V325L654 325V329ZM652 283V327H656V283H652ZM653 285H654V281H653V285ZM655 327V283H651V327H655ZM523 329H653V325H523V329ZM521 283V327H525V283H521ZM522 285H523V281H522V285ZM524 327V283H520V327H524ZM392 329H522V325H392V329ZM390 283V327H394V283H390ZM391 285H392V281H391V285ZM393 327V283H389V327H393ZM261 329H391V325H261V329ZM259 283V327H263V283H259ZM260 285H261V281H260V285ZM262 327V283H258V327H262ZM130 329H260V325H130V329ZM128 283V327H132V283H128ZM129 285H130V281H129V285ZM131 327V283H127V327H131ZM0 329H129V325H0V329ZM2 328V327H-2V328H2ZM129 326H0V330H129V326ZM131 458V328H127V458H131ZM0 460H129V456H0V460ZM2 459V458H-2V459H2ZM129 457H0V461H129V457ZM131 589V459H127V589H131ZM0 591H129V587H0V591ZM2 590V589H-2V590H2ZM129 588H0V592H129V588ZM131 720V590H127V720H131ZM0 722H129V718H0V722ZM2 721V720H-2V721H2ZM129 719H0V723H129V719ZM131 851.001V721H127V851.001H131ZM0 853.001H129V849.001H0V853.001ZM2 852.001V851.001H-2V852.001H2ZM129 850.001H0V854.001H129V850.001ZM131 982.001V852.001H127V982.001H131ZM0 984.001H129V980.001H0V984.001ZM2 983.001V982.001H-2V983.001H2ZM129 981.001H0V985.001H129V981.001ZM131 1113V983.001H127V1113H131ZM0 1115H129V1111H0V1115ZM2 1114V1113H-2V1114H2ZM129 1112H0V1116H129V1112ZM131 1243V1114H127V1243H131ZM130 1241H129V1245H130V1241ZM128 1114V1243H132V1114H128ZM260 1112L130 1112V1116L260 1116V1112ZM262 1243V1114H258V1243H262ZM261 1241H260V1245H261V1241ZM259 1114V1243H263V1114H259ZM391 1112H261V1116H391V1112ZM393 1243V1114H389V1243H393ZM392 1241H391V1245H392V1241ZM390 1114V1243H394V1114H390ZM522 1112H392V1116H522V1112ZM524 1243V1114H520V1243H524ZM523 1241H522V1245H523V1241ZM521 1114V1243H525V1114H521ZM653 1112L523 1112V1116L653 1116V1112ZM655 1243V1114H651V1243H655ZM654 1241H653V1245H654V1241ZM652 1114V1243H656V1114H652ZM784 1112H654V1116H784V1112ZM786 1243V1114H782V1243H786ZM785 1241H784V1245H785V1241ZM783 1114V1243H787V1114H783ZM915 1112L785 1112V1116L915 1116V1112ZM917 1243V1114H913V1243H917ZM916 1241H915V1245H916V1241ZM914 1114V1243H918V1114H914ZM1046 1112H916V1116H1046V1112ZM1048 1243V1114H1044V1243H1048ZM1047 1241H1046V1245H1047V1241ZM1045 1114V1243H1049V1114H1045ZM1177 1112H1047V1116H1177V1112ZM1179 1243V1114H1175V1243H1179ZM1178 1241H1177V1245H1178V1241ZM1176 1114V1243H1180V1114H1176ZM1308 1112L1178 1112V1116L1308 1116V1112ZM1310 1243V1114H1306V1243H1310ZM1309 1241H1308V1245H1309V1241ZM1307 1114V1243H1311V1114H1307ZM1439 1112H1309V1116H1439V1112ZM1441 1243V1114H1437V1243H1441ZM128 328V458H132V328H128ZM130 460H260V456H130V460ZM262 458V328H258V458H262ZM260 326H130V330H260V326ZM259 328V458H263V328H259ZM261 460H391V456H261V460ZM393 458V328H389V458H393ZM391 326H261V330H391V326ZM390 328V458H394V328H390ZM392 460H522V456H392V460ZM524 458V328H520V458H524ZM522 326H392V330H522V326ZM521 328V458H525V328H521ZM523 460H653V456H523V460ZM655 458V328H651V458H655ZM653 326H523V330H653V326ZM652 328V458H656V328H652ZM654 460L784 460V456L654 456V460ZM786 458V328H782V458H786ZM784 326L654 326V330L784 330V326ZM783 328V458H787V328H783ZM785 460H915V456H785V460ZM917 458V328H913V458H917ZM915 326H785V330H915V326ZM914 328V458H918V328H914ZM916 460H1046V456H916V460ZM1048 458V328H1044V458H1048ZM1046 326H916V330H1046V326ZM1045 328V458H1049V328H1045ZM1047 460H1177V456H1047V460ZM1179 458V328H1175V458H1179ZM1177 326H1047V330H1177V326ZM1176 328V458H1180V328H1176ZM1178 460H1308V456H1178V460ZM1310 458V328H1306V458H1310ZM1308 326H1178V330H1308V326ZM1307 328V458H1311V328H1307ZM1309 460H1439V456H1309V460ZM1441 458V328H1437V458H1441ZM1439 326H1309V330H1439V326ZM1439 457H1309V461H1439V457ZM1441 589V459H1437V589H1441ZM1309 591H1439V587H1309V591ZM1307 459V589H1311V459H1307ZM1308 457H1178V461H1308V457ZM1310 589V459H1306V589H1310ZM1178 591H1308V587H1178V591ZM1176 459V589H1180V459H1176ZM1177 457H1047V461H1177V457ZM1179 589V459H1175V589H1179ZM1047 591H1177V587H1047V591ZM1045 459V589H1049V459H1045ZM1046 457H916V461H1046V457ZM1048 589V459H1044V589H1048ZM916 591H1046V587H916V591ZM914 459V589H918V459H914ZM915 457H785V461H915V457ZM917 589V459H913V589H917ZM785 591H915V587H785V591ZM783 459V589H787V459H783ZM784 457L654 457V461L784 461V457ZM786 589V459H782V589H786ZM654 591L784 591V587L654 587V591ZM652 459V589H656V459H652ZM653 457H523V461H653V457ZM655 589V459H651V589H655ZM523 591H653V587H523V591ZM521 459V589H525V459H521ZM522 457H392V461H522V457ZM524 589V459H520V589H524ZM392 591H522V587H392V591ZM390 459V589H394V459H390ZM391 457H261V461H391V457ZM393 589V459H389V589H393ZM261 591H391V587H261V591ZM259 459V589H263V459H259ZM260 457H130V461H260V457ZM262 589V459H258V589H262ZM130 591H260V587H130V591ZM128 459V589H132V459H128ZM132 720V590H128V720H132ZM260 718H130V722H260V718ZM258 590V720H262V590H258ZM130 592H260V588H130V592ZM263 720V590H259V720H263ZM391 718H261V722H391V718ZM389 590V720H393V590H389ZM261 592H391V588H261V592ZM394 720V590H390V720H394ZM522 718H392V722H522V718ZM520 590V720H524V590H520ZM392 592H522V588H392V592ZM525 720V590H521V720H525ZM653 718H523V722H653V718ZM651 590V720H655V590H651ZM523 592H653V588H523V592ZM656 720V590H652V720H656ZM784 718L654 718V722L784 722V718ZM782 590V720H786V590H782ZM654 592L784 592V588L654 588V592ZM787 720V590H783V720H787ZM915 718H785V722H915V718ZM913 590V720H917V590H913ZM785 592H915V588H785V592ZM918 720V590H914V720H918ZM1046 718H916V722H1046V718ZM1044 590V720H1048V590H1044ZM916 592H1046V588H916V592ZM1049 720V590H1045V720H1049ZM1177 718H1047V722H1177V718ZM1175 590V720H1179V590H1175ZM1047 592H1177V588H1047V592ZM1180 720V590H1176V720H1180ZM1308 718H1178V722H1308V718ZM1306 590V720H1310V590H1306ZM1178 592H1308V588H1178V592ZM1311 720V590H1307V720H1311ZM1439 718H1309V722H1439V718ZM1437 590V720H1441V590H1437ZM1309 592H1439V588H1309V592ZM1439 719H1309V723H1439V719ZM1441 851V721H1437V851H1441ZM1309 853H1439V849H1309V853ZM1307 721V851H1311V721H1307ZM1308 719H1178V723H1308V719ZM1310 851V721H1306V851H1310ZM1178 853H1308V849H1178V853ZM1176 721V851H1180V721H1176ZM1177 719H1047V723H1177V719ZM1179 851V721H1175V851H1179ZM1047 853L1177 853V849L1047 849V853ZM1045 721V851H1049V721H1045ZM1046 719H916V723H1046V719ZM1048 851V721H1044V851H1048ZM916 853H1046V849H916V853ZM914 721V851H918V721H914ZM915 719H785V723H915V719ZM917 851V721H913V851H917ZM785 853H915V849H785V853ZM783 721V851H787V721H783ZM784 719L654 719V723L784 723V719ZM786 851V721H782V851H786ZM654 853H784V849H654V853ZM652 721V851H656V721H652ZM653 719H523V723H653V719ZM655 851V721H651V851H655ZM523 853H653V849H523V853ZM521 721V851H525V721H521ZM522 719H392V723H522V719ZM524 851V721H520V851H524ZM392 853H522V849H392V853ZM390 721V851H394V721H390ZM391 719H261V723H391V719ZM393 851V721H389V851H393ZM261 853.001L391 853V849L261 849.001V853.001ZM259 721V851.001H263V721H259ZM260 719H130V723H260V719ZM262 851.001V721H258V851.001H262ZM130 853.001H260V849.001H130V853.001ZM128 721V851.001H132V721H128ZM132 982.001V852.001H128V982.001H132ZM260 980.001H130V984.001H260V980.001ZM258 852.001V982.001H262V852.001H258ZM130 854.001H260V850.001H130V854.001ZM263 982.001V852.001H259V982.001H263ZM391 980.001L261 980.001V984.001L391 984.001V980.001ZM389 852V982.001H393V852H389ZM261 854.001L391 854V850L261 850.001V854.001ZM394 982.001V852H390V982.001H394ZM522 980.001H392V984.001H522V980.001ZM520 852V982.001H524V852H520ZM392 854H522V850H392V854ZM525 982.001V852H521V982.001H525ZM653 980.001H523V984.001H653V980.001ZM651 852V982.001H655V852H651ZM523 854H653V850H523V854ZM656 982.001V852H652V982.001H656ZM784 980.001H654V984.001H784V980.001ZM782 852V982.001H786V852H782ZM654 854H784V850H654V854ZM787 982.001V852H783V982.001H787ZM915 980.001H785V984.001H915V980.001ZM913 852V982.001H917V852H913ZM785 854H915V850H785V854ZM918 982.001V852H914V982.001H918ZM1046 980.001H916V984.001H1046V980.001ZM1044 852V982.001H1048V852H1044ZM916 854H1046V850H916V854ZM1049 982.001V852H1045V982.001H1049ZM1177 980.001L1047 980.001V984.001L1177 984.001V980.001ZM1175 852V982.001H1179V852H1175ZM1047 854L1177 854V850L1047 850V854ZM1180 982.001V852H1176V982.001H1180ZM1308 980.001H1178V984.001H1308V980.001ZM1306 852V982.001H1310V852H1306ZM1178 854H1308V850H1178V854ZM1311 982.001V852H1307V982.001H1311ZM1439 980.001H1309V984.001H1439V980.001ZM1437 852V982.001H1441V852H1437ZM1309 854H1439V850H1309V854ZM1439 981.001H1309V985.001H1439V981.001ZM1441 1113V983.001H1437V1113H1441ZM1309 1115H1439V1111H1309V1115ZM1307 983.001V1113H1311V983.001H1307ZM1308 981.001H1178V985.001H1308V981.001ZM1310 1113V983.001H1306V1113H1310ZM1178 1115L1308 1115V1111L1178 1111V1115ZM1176 983.001V1113H1180V983.001H1176ZM1177 981.001L1047 981.001V985.001L1177 985.001V981.001ZM1179 1113V983.001H1175V1113H1179ZM1047 1115H1177V1111H1047V1115ZM1045 983.001V1113H1049V983.001H1045ZM1046 981.001H916V985.001H1046V981.001ZM1048 1113V983.001H1044V1113H1048ZM916 1115H1046V1111H916V1115ZM914 983.001V1113H918V983.001H914ZM915 981.001H785V985.001H915V981.001ZM917 1113V983.001H913V1113H917ZM785 1115L915 1115V1111L785 1111V1115ZM783 983.001V1113H787V983.001H783ZM784 981.001H654V985.001H784V981.001ZM786 1113V983.001H782V1113H786ZM654 1115H784V1111H654V1115ZM652 983.001V1113H656V983.001H652ZM653 981.001H523V985.001H653V981.001ZM655 1113V983.001H651V1113H655ZM523 1115L653 1115V1111L523 1111V1115ZM521 983.001V1113H525V983.001H521ZM522 981.001H392V985.001H522V981.001ZM524 1113V983.001H520V1113H524ZM392 1115H522V1111H392V1115ZM390 983.001V1113H394V983.001H390ZM391 981.001L261 981.001V985.001L391 985.001V981.001ZM393 1113V983.001H389V1113H393ZM261 1115H391V1111H261V1115ZM259 983.001V1113H263V983.001H259ZM260 981.001H130V985.001H260V981.001ZM262 1113V983.001H258V1113H262ZM130 1115L260 1115V1111L130 1111V1115ZM128 983.001V1113H132V983.001H128ZM-1 1241H-2V1245H-1V1241ZM-3 283V1243H1V283H-3ZM-2 285H-1V281H-2V285ZM0 1243V283H-4V1243H0Z" fill="url(#paint1_radial_368_142)" mask="url(#path-2-inside-1_368_142)"/>
<g filter="url(#filter1_dd_368_142)">
<path d="M1187 142L1190.05 156.945L1205 160L1190.05 163.055L1187 178L1183.95 163.055L1169 160L1183.95 156.945L1187 142Z" fill="url(#paint2_linear_368_142)"/>
</g>
<path d="M1255 232L1258.05 246.945L1273 250L1258.05 253.055L1255 268L1251.95 253.055L1237 250L1251.95 246.945L1255 232Z" fill="url(#paint3_linear_368_142)"/>
</g>
<defs>
<filter id="filter0_f_368_142" x="-850" y="537.753" width="1568.45" height="1183.88" filterUnits="userSpaceOnUse" color-interpolation-filters="sRGB">
<feFlood flood-opacity="0" result="BackgroundImageFix"/>
<feBlend mode="normal" in="SourceGraphic" in2="BackgroundImageFix" result="shape"/>
<feGaussianBlur stdDeviation="100" result="effect1_foregroundBlur_368_142"/>
</filter>
<filter id="filter1_dd_368_142" x="1161.2" y="134.2" width="51.6" height="51.6" filterUnits="userSpaceOnUse" color-interpolation-filters="sRGB">
<feFlood flood-opacity="0" result="BackgroundImageFix"/>
<feColorMatrix in="SourceAlpha" type="matrix" values="0 0 0 0 0 0 0 0 0 0 0 0 0 0 0 0 0 0 127 0" result="hardAlpha"/>
<feOffset/>
<feGaussianBlur stdDeviation="3.9"/>
<feComposite in2="hardAlpha" operator="out"/>
<feColorMatrix type="matrix" values="0 0 0 0 0.701961 0 0 0 0 0.913569 0 0 0 0 0.980392 0 0 0 0.75 0"/>
<feBlend mode="normal" in2="BackgroundImageFix" result="effect1_dropShadow_368_142"/>
<feColorMatrix in="SourceAlpha" type="matrix" values="0 0 0 0 0 0 0 0 0 0 0 0 0 0 0 0 0 0 127 0" result="hardAlpha"/>
<feOffset/>
<feGaussianBlur stdDeviation="0.1625"/>
<feComposite in2="hardAlpha" operator="out"/>
<feColorMatrix type="matrix" values="0 0 0 0 1 0 0 0 0 1 0 0 0 0 0.0509804 0 0 0 1 0"/>
<feBlend mode="normal" in2="effect1_dropShadow_368_142" result="effect2_dropShadow_368_142"/>
<feBlend mode="normal" in="SourceGraphic" in2="effect2_dropShadow_368_142" result="shape"/>
</filter>
<linearGradient id="paint0_linear_368_142" x1="163.015" y1="1572.97" x2="-713.621" y2="1056.3" gradientUnits="userSpaceOnUse">
<stop stop-color="#B3E9FA"/>
<stop offset="0.884176" stop-color="#FDE9A3"/>
</linearGradient>
<radialGradient id="paint1_radial_368_142" cx="0" cy="0" r="1" gradientUnits="userSpaceOnUse" gradientTransform="translate(1070 1036.57) rotate(-156.79) scale(826.381 659.362)">
<stop stop-color="#606062"/>
<stop offset="0.631051" stop-color="#606062" stop-opacity="0.2"/>
</radialGradient>
<linearGradient id="paint2_linear_368_142" x1="1171.73" y1="168.839" x2="1182.58" y2="136.112" gradientUnits="userSpaceOnUse">
<stop stop-color="#B3E9FA"/>
<stop offset="0.884176" stop-color="#FDE9A3"/>
</linearGradient>
<linearGradient id="paint3_linear_368_142" x1="1239.73" y1="258.839" x2="1250.58" y2="226.112" gradientUnits="userSpaceOnUse">
<stop stop-color="#B3E9FA"/>
<stop offset="0.884176" stop-color="#FDE9A3"/>
</linearGradient>
<clipPath id="clip0_368_142">
<rect width="1440" height="1068" fill="white"/>
</clipPath>
</defs>
</svg>
