<svg width="297" height="27" viewBox="0 0 297 27" fill="none" xmlns="http://www.w3.org/2000/svg">
<path d="M3.41064 12.0447C75.9116 8.1883 148.697 3.72937 221.313 3.27694C242.29 3.14624 263.293 3.45208 284.259 4.18516C285.277 4.22074 300.051 4.06519 292.014 4.63926C281.351 5.40092 270.73 6.80043 260.087 7.78309C234.531 10.1426 208.92 11.711 183.308 13.3023C152.56 15.2125 121.431 16.275 90.9139 20.7776C89.6585 20.9628 82.0082 21.0528 81.168 23.0132C80.8732 23.7012 82.6562 23.2624 83.4036 23.2228C89.8136 22.8829 96.195 22.7461 102.616 22.8735C110.301 23.0259 119.867 21.8741 127.278 23.9913" stroke="url(#paint0_linear_90_25)" stroke-width="5" stroke-linecap="round"/>
<defs>
<linearGradient id="paint0_linear_90_25" x1="-76.5" y1="24" x2="-75.8288" y2="-4.56083" gradientUnits="userSpaceOnUse">
<stop stop-color="#B3E9FA"/>
<stop offset="0.884176" stop-color="#FDE9A3"/>
</linearGradient>
</defs>
</svg>
